Coordinates
version=1
nRows=5
nColumns=42
inDegrees=yes

Units are S.I. units (second, meters, Newtons, ...)
If the header above contains a line with 'inDegrees', this indicates whether rotational values are in degrees (yes) or radians (no).

endheader
time	pelvis_tilt	pelvis_list	pelvis_rotation	pelvis_tx	pelvis_ty	pelvis_tz	hip_flexion_r	hip_adduction_r	hip_rotation_r	knee_angle_r	knee_adduction_r	knee_angle_r_beta	ankle_angle_r	subtalar_angle_r	mtp_angle_r	hip_flexion_l	hip_adduction_l	hip_rotation_l	knee_angle_l	knee_adduction_l	knee_angle_l_beta	ankle_angle_l	subtalar_angle_l	mtp_angle_l	lumbar_extension	lumbar_bending	lumbar_rotation	arm_flex_r	arm_add_r	arm_rot_r	elbow_flex_r	pro_sup_r	wrist_flex_r	wrist_dev_r	arm_flex_l	arm_add_l	arm_rot_l	elbow_flex_l	pro_sup_l	wrist_flex_l	wrist_dev_l
      4.50000000	     -0.48783702	    -10.13611027	     -8.14983388	     -0.80617077	      0.82602251	      0.32086317	      4.20703733	     10.21649090	    -22.91476559	     20.69823129	     -2.20345250	      0.36125229	     22.19666143	     30.73200676	     -7.50252226	     29.65234897	    -23.32018555	    -28.80421081	     43.87451135	     -8.82231865	      0.76575468	     17.36329265	     28.06865780	     -7.50252226	    -23.54467259	     10.67084004	      1.58288153	    -10.88050524	     -4.45347040	    -11.60441349	    107.19065989	     90.00000001	      0.00000000	      0.00000000	      1.07217765	     -8.93638210	    -16.85379892	     46.48363519	     90.00000001	      0.00000000	      0.00000000
      4.51000000	     -0.57317216	    -10.31031314	     -8.28516904	     -0.80317927	      0.82565166	      0.31976285	      4.06439120	     10.30736683	    -22.84791978	     20.73163250	     -2.23905666	      0.36183525	     22.23550971	     30.73650495	     -7.50251571	     29.62064498	    -23.39456595	    -28.84073171	     43.40608865	     -8.65408025	      0.75757916	     17.37164214	     28.08488155	     -7.50251571	    -23.38617387	     10.79276724	      1.51951217	    -10.96260916	     -4.54411850	    -11.71880444	    107.19779589	     90.00000001	      0.00000000	      0.00000000	      0.87786853	     -8.96476141	    -16.90271535	     46.40059468	     90.00000001	      0.00000000	      0.00000000
      4.52000000	     -0.24967194	    -10.23637631	     -8.54502354	     -0.80015524	      0.82621426	      0.31870833	      3.38753056	     10.12110088	    -22.29141840	     20.52012847	     -2.22018280	      0.35814380	     22.49391438	     30.60562708	     -7.50243232	     28.70394727	    -23.10942060	    -29.12469892	     42.45556809	     -8.41984797	      0.74098945	     17.08235163	     28.47792754	     -7.50243232	    -23.66297572	     10.50463833	      1.60234855	    -10.89425677	     -4.43898471	    -11.91709528	    107.04484058	     90.00000001	      0.00000000	      0.00000000	      1.00583502	     -8.94311032	    -17.19459629	     46.08373685	     90.00000001	      0.00000000	      0.00000000
      4.53000000	     -0.34256921	    -10.32905921	     -8.73406466	     -0.79715324	      0.82602662	      0.31758071	      3.25038011	     10.16755322	    -22.09609102	     20.49002721	     -2.31722411	      0.35761844	     22.58174033	     30.57631464	     -7.50241367	     28.51083292	    -23.03963085	    -29.03530029	     42.01708204	     -8.25272817	      0.73333642	     17.05908063	     28.51377235	     -7.50241367	    -23.47326870	     10.51929531	      1.56325436	    -10.92673846	     -4.42808006	    -12.02027311	    106.98748601	     90.00000001	      0.00000000	      0.00000000	      0.87577536	     -8.97827483	    -17.23673595	     45.99204153	     90.00000001	      0.00000000	      0.00000000
      4.54000000	     -0.41300428	    -10.42276343	     -8.91356266	     -0.79400985	      0.82587213	      0.31630100	      3.09006660	     10.17771640	    -21.96105370	     20.51227133	     -2.39067261	      0.35800667	     22.61760289	     30.54166305	     -7.50240622	     28.34068456	    -22.96161227	    -28.93780473	     41.83721698	     -8.20506862	      0.73019719	     17.02744932	     28.49770144	     -7.50240622	    -23.28526355	     10.55832249	      1.50304510	    -11.00881650	     -4.44635749	    -12.10959751	    106.94924693	     90.00000001	      0.00000000	      0.00000000	      0.70113788	     -9.00597369	    -17.26554442	     45.90259386	     90.00000001	      0.00000000	      0.00000000
